<?xml version="1.0"?><svg fill="#FFFFFF" xmlns="http://www.w3.org/2000/svg"  viewBox="0 0 50 50" width="50px" height="50px">    <path d="M 25.003906 -0.001953125 A 1.0001 1.0001 0 0 0 24.066406 0.63867188 L 16.089844 21.421875 C 15.045946 23.804312 14.335354 25.857906 13.294922 26.990234 C 12.247305 28.130381 10.910473 28.660167 7.7089844 27.992188 A 1.0001 1.0001 0 0 0 6.5722656 29.333984 C 7.2219466 31.003331 8.2015953 33.703078 6.8378906 37.169922 A 1.0001 1.0001 0 0 0 8.1601562 38.455078 C 8.2878888 38.400648 8.5338548 38.347656 8.8144531 38.347656 C 9.5008253 38.347656 10.375384 38.669264 10.769531 39.113281 C 11.343828 39.760446 12.661192 40.961809 14.642578 42.177734 C 16.623965 43.393659 19.245514 44.587234 22.308594 45.021484 A 1.0001 1.0001 0 0 0 23.447266 44.089844 C 23.456366 43.933213 23.461344 43.74806 23.464844 43.589844 C 23.466644 43.510734 23.46905 43.439651 23.46875 43.376953 C 23.468603 43.345603 23.466944 43.319434 23.464844 43.277344 C 23.463844 43.256294 23.464614 43.234364 23.457031 43.177734 C 23.453231 43.149424 23.451331 43.117514 23.425781 43.029297 C 23.413011 42.985187 23.338041 42.818622 23.337891 42.818359 C 23.337817 42.818228 23.179762 42.607499 23.179688 42.607422 C 23.179612 42.607344 22.752031 42.34768 22.751953 42.347656 L 22.84375 42.380859 C 21.23763 41.722974 19.634994 40.293056 18.689453 38.539062 C 17.743912 36.785069 17.431076 34.763005 18.21875 32.740234 L 18.203125 32.775391 C 18.700113 31.634488 20.374881 27.258194 22.082031 22.771484 C 23.374843 19.373734 24.257987 17.034527 25 15.074219 C 25.741927 17.034499 26.625247 19.373723 27.917969 22.771484 C 29.618598 27.241382 31.276352 31.578459 31.78125 32.740234 C 32.570643 34.76742 32.273392 36.794525 31.345703 38.546875 C 30.418014 40.299225 28.836302 41.72388 27.232422 42.380859 L 27.324219 42.347656 C 27.324141 42.34768 26.898513 42.605392 26.898438 42.605469 C 26.898362 42.605545 26.740307 42.816277 26.740234 42.816406 C 26.74009 42.816664 26.663341 42.986171 26.650391 43.03125 C 26.624491 43.12141 26.622851 43.154718 26.619141 43.183594 C 26.611741 43.241344 26.610275 43.262113 26.609375 43.283203 C 26.607575 43.325383 26.609313 43.352142 26.609375 43.382812 C 26.6095 43.444142 26.609297 43.512811 26.611328 43.589844 C 26.615328 43.743909 26.622676 43.926893 26.628906 44.074219 A 1.0001 1.0001 0 0 0 27.767578 45.021484 C 30.83137 44.587664 33.437001 43.393002 35.400391 42.175781 C 37.36378 40.958561 38.665253 39.750212 39.230469 39.113281 C 39.624616 38.669264 40.499175 38.347656 41.185547 38.347656 C 41.467425 38.347656 41.712419 38.401426 41.837891 38.455078 A 1.0001 1.0001 0 0 0 43.162109 37.169922 C 41.798405 33.703078 42.778152 31.002097 43.427734 29.333984 A 1.0001 1.0001 0 0 0 42.291016 27.992188 C 39.089517 28.66017 37.752595 28.130385 36.705078 26.990234 C 35.664485 25.85762 34.955023 23.80516 33.910156 21.421875 L 25.933594 0.63867188 A 1.0001 1.0001 0 0 0 25.003906 -0.001953125 z M 25 3.7871094 L 32.042969 22.138672 A 1.0001 1.0001 0 0 0 32.060547 22.183594 C 33.067169 24.473989 33.729939 26.708401 35.232422 28.34375 C 36.50006 29.723487 38.449963 30.389309 41.160156 30.134766 C 40.656617 31.729472 40.28722 33.766921 40.923828 36.394531 C 39.794734 36.449201 38.586679 36.825015 37.734375 37.785156 C 37.369591 38.196225 36.132564 39.368784 34.345703 40.476562 C 33.419024 41.051065 32.326786 41.603769 31.123047 42.068359 C 31.890225 41.310661 32.594686 40.462018 33.113281 39.482422 C 34.263343 37.310022 34.665092 34.629487 33.646484 32.013672 A 1.0001 1.0001 0 0 0 33.630859 31.976562 C 33.234852 31.068492 31.492828 26.543822 29.787109 22.060547 C 28.081391 17.577272 26.379699 13.063452 25.935547 11.896484 A 1.0001 1.0001 0 0 0 24.064453 11.896484 C 23.620346 13.063335 21.91874 17.577257 20.212891 22.060547 C 18.507041 26.543837 16.765152 31.069419 16.369141 31.978516 A 1.0001 1.0001 0 0 0 16.353516 32.013672 C 15.333189 34.633901 15.759478 37.317525 16.929688 39.488281 C 17.456468 40.46547 18.165751 41.310776 18.9375 42.066406 C 17.726591 41.601463 16.624 41.049315 15.6875 40.474609 C 13.880636 39.365784 12.621328 38.185992 12.265625 37.785156 C 11.413321 36.825015 10.205266 36.449203 9.0761719 36.394531 C 9.7128711 33.766517 9.3434414 31.727892 8.8398438 30.132812 C 11.550161 30.387404 13.499791 29.721561 14.767578 28.341797 C 16.270212 26.706444 16.933281 24.472123 17.939453 22.181641 A 1.0001 1.0001 0 0 0 17.957031 22.138672 L 25 3.7871094 z M 7.4667969 41.515625 C 7.1017969 41.654625 6.9469062 41.7365 6.6289062 41.8125 C 6.6289062 41.8125 13.361219 50.048812 25.074219 50.007812 C 37.008219 49.963813 43.371094 41.896484 43.371094 41.896484 C 43.157094 41.767484 43.005141 41.692781 42.744141 41.550781 C 36.315141 46.538781 27.495109 50.024625 25.037109 45.640625 C 23.698109 49.258625 15.293797 47.408625 7.4667969 41.515625 z"/></svg>